<svg xmlns="http://www.w3.org/2000/svg" width="24.593" height="24.598" viewBox="0 0 24.593 24.598"><defs><style>.a{fill:#40404d;}</style></defs><g transform="translate(-0.05)"><g transform="translate(0.05)"><g transform="translate(0)"><path class="a" d="M17.3,3.606A9.984,9.984,0,0,0,15,2.652V1.833A1.837,1.837,0,0,0,13.168,0H11.535A1.837,1.837,0,0,0,9.7,1.833v.819a9.767,9.767,0,0,0-2.3.954l-.583-.578a1.831,1.831,0,0,0-2.591,0L3.078,4.183a1.831,1.831,0,0,0,0,2.591l.578.578a9.984,9.984,0,0,0-.954,2.3H1.883A1.837,1.837,0,0,0,.05,11.48v1.632a1.837,1.837,0,0,0,1.833,1.833H2.7a9.767,9.767,0,0,0,.954,2.3l-.578.583a1.837,1.837,0,0,0,0,2.591L4.233,21.57a1.831,1.831,0,0,0,2.591,0l.578-.578a9.984,9.984,0,0,0,2.3.954v.819A1.837,1.837,0,0,0,11.53,24.6h1.632A1.837,1.837,0,0,0,15,22.765v-.819a9.767,9.767,0,0,0,2.3-.954l.578.578a1.831,1.831,0,0,0,2.591,0l1.155-1.155a1.837,1.837,0,0,0,0-2.591l-.578-.578a9.984,9.984,0,0,0,.954-2.3h.819a1.837,1.837,0,0,0,1.833-1.833V11.485A1.837,1.837,0,0,0,22.81,9.652h-.819a9.767,9.767,0,0,0-.954-2.3l.578-.578a1.837,1.837,0,0,0,0-2.591L20.46,3.033a1.831,1.831,0,0,0-2.591,0Zm1.8.638a.106.106,0,0,1,.156,0L20.4,5.4a.106.106,0,0,1,0,.156l-1.06,1.06a.86.86,0,0,0-.105,1.09,8.142,8.142,0,0,1,1.23,2.973.861.861,0,0,0,.844.693h1.5a.111.111,0,0,1,.11.11v1.632a.111.111,0,0,1-.11.11h-1.5a.861.861,0,0,0-.844.693,8.194,8.194,0,0,1-1.23,2.973.86.86,0,0,0,.105,1.09l1.06,1.06a.106.106,0,0,1,0,.156l-1.155,1.155a.111.111,0,0,1-.156,0l-1.06-1.06a.86.86,0,0,0-1.09-.105,8.178,8.178,0,0,1-2.973,1.23.861.861,0,0,0-.693.844v1.5a.111.111,0,0,1-.11.11H11.535a.111.111,0,0,1-.11-.11v-1.5a.861.861,0,0,0-.693-.844,8.23,8.23,0,0,1-2.973-1.23.872.872,0,0,0-.477-.146.859.859,0,0,0-.608.251l-1.06,1.06a.106.106,0,0,1-.156,0L4.3,19.194a.106.106,0,0,1,0-.156l1.06-1.06a.86.86,0,0,0,.105-1.09,8.178,8.178,0,0,1-1.23-2.973.861.861,0,0,0-.844-.693H1.883a.111.111,0,0,1-.11-.11V11.48a.111.111,0,0,1,.11-.11h1.5a.861.861,0,0,0,.844-.693A8.23,8.23,0,0,1,5.459,7.7a.866.866,0,0,0-.105-1.09l-1.06-1.06a.106.106,0,0,1-.03-.08.1.1,0,0,1,.03-.075L5.449,4.244a.106.106,0,0,1,.156,0L6.664,5.3a.86.86,0,0,0,1.09.105,8.178,8.178,0,0,1,2.973-1.23.861.861,0,0,0,.693-.844v-1.5a.111.111,0,0,1,.11-.11h1.632a.111.111,0,0,1,.11.11v1.5a.861.861,0,0,0,.693.844,8.23,8.23,0,0,1,2.973,1.23.866.866,0,0,0,1.09-.105Z" transform="translate(-0.05)"/><path class="a" d="M150.352,145.3a5,5,0,1,0,5,5A5.009,5.009,0,0,0,150.352,145.3Zm0,8.281a3.279,3.279,0,1,1,3.279-3.279A3.284,3.284,0,0,1,150.352,153.581Z" transform="translate(-138.053 -138.003)"/></g></g></g></svg>